<svg id="logo-big" xmlns="http://www.w3.org/2000/svg" viewBox="0 0 1187.276 398.934">
                            <defs>
                                <style>
                                    .cls-01 {
                                        fill: #91c222;
                                    }
                                    .cls-02 {
                                        fill: #060606;
                                    }
                                    .cls-03 {
                                        fill: #070707;
                                    }
                                    .cls-04 {
                                        fill: #039fe6;
                                    }
                                    .cls-05 {
                                        fill: #f5b633;
                                    }
                                    .cls-06 {
                                        fill: #a663a3;
                                    }
                                    .cls-07 {
                                        fill: #ea7cab;
                                    }
                                    .cls-08 {
                                        fill: #e40616;
                                    }
                                    .cls-09 {
                                        fill: #e8581e;
                                    }
                                </style>
                            </defs>
                            <title>logo-big</title>
                            <g id="logo">
                                <g id="shi">
                                    <path
                                        class="cls-01"
                                        d="M637.039-187.362c57.373-9.4,114.507-20.139,171.754-30.248,7.687-1.358,15.351-2.848,23.042-4.183,6.942-1.206,12.154,2.1,13.111,8.172,1.081,6.864-2.742,11.435-10.3,12.409q-76.38,9.856-152.756,19.745c-15.652,2.03-31.289,4.171-46.933,6.261L622.3-173.677c-3.77.463-7.545.892-11.31,1.4q-30.206,4.041-60.408,8.113l-7.136.1c-3.621-4.032-2.883-6.892,2.315-7.8,16.3-2.855,32.628-5.519,48.942-8.276q15.418-2.605,30.829-5.26Z"
                                        transform="translate(342.149 333.388)"
                                    />
                                    <path
                                        class="cls-02"
                                        d="M637.039-187.362l-11.5,1.959.227-.982.253-.084-.225-.166c1.355-5.643,2.693-11.29,4.071-16.926.7-2.845,1.677-5.465-1-8.156-1.755-1.764-.794-4.236,1.147-5.646,15.352-11.151,25.159-27.262,37.241-41.334,3.093-3.6,6.1-7.279,10.021-11.96-12.855,2.56-24.38,4.84-35.9,7.153-17.1,3.434-34.189,6.915-51.293,10.326-6.171,1.231-11.663-2.419-12.655-8.271-.927-5.471,3.074-10.741,9.09-11.544q52.883-7.055,105.781-13.975c2.8-.368,5.6-.783,8.417-.883,2.655-.1,4.352,1.551,5.112,3.968a4.475,4.475,0,0,1-2.093,5.626c-12.964,6.736-21.4,18.214-30.568,28.9-10.265,11.97-19.435,24.905-31.438,35.332a4.436,4.436,0,0,0-1.559,2.975C639.168-203.146,638.09-195.256,637.039-187.362Z"
                                        transform="translate(342.149 333.388)"
                                    />
                                    <path
                                        class="cls-03"
                                        d="M622.3-173.677l12.659-1.529q-5.691,39.859-11.381,79.718c-.164,1.148-.377,2.293-.455,3.447-.324,4.845-1.9,8.818-7.2,10.036-4.894,1.126-8.593-.624-11.694-4.572-14.856-18.916-29.892-37.692-44.741-56.613-5.417-6.9-11.305-13.451-16.041-20.875q3.568-.05,7.137-.1,24.4,26.63,48.845,53.227c1.96,2.123,3.459,4.837,6.394,6.2.7-2.832,1.348-5.4,1.962-7.981Q615.052-143.2,622.3-173.677Z"
                                        transform="translate(342.149 333.388)"
                                    />
                                    <polygon class="cls-01" points="967.939 146.753 968.164 146.919 967.912 147.003 967.662 146.847 967.939 146.753" />
                                </g>
                                <g id="dann">
                                    <path
                                        class="cls-02"
                                        d="M423.321-140.1Q405.761-102.485,388.2-64.869,371.3-28.564,354.43,7.76c-.962,2.059-1.386,5.415-5.063,3.713-3.45-1.6-2.211-4.225-1.206-6.788q26.751-68.262,53.462-136.538c.422-1.079.759-2.191,1.135-3.288a115.2,115.2,0,0,0,6.6-17.111l18.448-45.94c-10.013,1.566-19.3,3-28.571,4.477-4.757.758-9.491,1.669-14.257,2.372-6.261.923-11.242-2.446-11.781-7.825s3.165-9.317,9.518-9.823q58.437-4.651,116.88-9.228c1.491-.117,2.976-.32,4.462-.492,8.375-.97,8.344-.978,10.021-9.018,5.52-26.472,11-52.951,16.674-79.391.778-3.626.661-4.824-3.686-4.489-27.525,2.119-55.074,3.922-82.614,5.847-11.778.824-23.553,1.692-35.33,2.531-1.825.13-3.653.277-5.48.3a3.93,3.93,0,0,1-4.376-3.814c-.279-2.57,1.014-4.041,3.593-4.459,8.692-1.406,17.373-2.882,26.069-4.269,36.589-5.836,73.241-11.318,109.738-17.687,10.053-1.754,16.641,6.882,13.751,15.825-5.5,17.033-10.756,34.147-16.14,51.22-4.985,15.809-10.08,31.585-14.96,47.426-1.28,4.156-3.52,6.082-8,6.752-20.211,3.024-40.362,6.449-60.535,9.731-1.389.226-3.1-.221-3.419,1.989-1.4,9.573-6.938,17.5-10.575,26.18-2.622,6.259-5.548,12.392-8.338,18.582A106.539,106.539,0,0,0,423.321-140.1Z"
                                        transform="translate(342.149 333.388)"
                                    />
                                    <path
                                        class="cls-02"
                                        d="M391.606-301.623c-1.891,7.745-4.091,16.912-6.37,26.059q-9.487,38.081-19.031,76.147c-.12.482-.282.953-.416,1.432-.9,3.224-2.318,6.441-6.269,5.607-3.933-.83-3.319-4.409-2.9-7.386q2.85-20.185,5.8-40.356,4.4-30.261,8.818-60.517a17.36,17.36,0,0,1,3.543-8.615c2.787-3.483,6.213-5.949,10.755-4.326C390.2-311.909,391.534-307.766,391.606-301.623Z"
                                        transform="translate(342.149 333.388)"
                                    />
                                    <path
                                        class="cls-04"
                                        d="M409.355-152.252a115.2,115.2,0,0,1-6.6,17.111q-31.618,6.7-63.239,13.384c-6.157,1.294-11.833-2.123-13.093-7.739a10.064,10.064,0,0,1,8.528-12.43C359.727-145.552,384.551-148.839,409.355-152.252Z"
                                        transform="translate(342.149 333.388)"
                                    />
                                    <path
                                        class="cls-05"
                                        d="M458.213-268.06q19.713-2.662,39.426-5.327c.987-.134,1.967-.377,2.957-.427,5.42-.277,10.081,3.276,10.407,7.887.329,4.665-3.683,8.524-9.408,8.812-16.083.811-32.17,1.543-48.256,2.305l-11.484.832q-17.157.661-34.313,1.332c-.993.04-1.981.26-2.971.264-2.64.011-4.778-1.073-4.876-3.86-.088-2.51,1.757-3.562,4.248-3.9,8.549-1.15,17.075-2.461,25.609-3.719q7.385-1.089,14.765-2.2Z"
                                        transform="translate(342.149 333.388)"
                                    />
                                    <path
                                        class="cls-03"
                                        d="M500.461-164.764c2.057-.591,3.99-1.634,6.264-1.36,6.823.821,10.4,7.948,6.826,14.248-11.3,19.9-22.772,39.7-34.123,59.562-1.488,2.6-3.3,4.414-6.367,2.935-3.106-1.5-2.667-4.12-1.578-6.825q11.781-29.274,23.5-58.566C496.533-158.249,497.7-161.942,500.461-164.764Z"
                                        transform="translate(342.149 333.388)"
                                    />
                                    <path
                                        class="cls-04"
                                        d="M500.461-164.764c-2.762,2.822-3.928,6.515-5.476,9.994q-33.382,6.953-66.771,13.905c-1.614.335-3.261.513-4.892.764a106.427,106.427,0,0,1,7.127-15.354q33.292-4.654,66.588-9.288A25.22,25.22,0,0,1,500.461-164.764Z"
                                        transform="translate(342.149 333.388)"
                                    />
                                    <path
                                        class="cls-03"
                                        d="M458.213-268.06l-13.9,2c1.628-8.967,3.2-17.945,4.912-26.895.849-4.43,4.458-6.642,8.82-5.673,5.125,1.138,8.076,5.217,6.736,9.727C462.71-281.921,460.415-275,458.213-268.06Z"
                                        transform="translate(342.149 333.388)"
                                    />
                                    <path
                                        class="cls-03"
                                        d="M441.855-253.978l11.484-.832c-2.272,9.631-5.985,18.805-8.974,28.209-.674,2.119-2.082,3.438-4.474,2.85-2.622-.644-3.173-2.485-2.705-4.955C438.781-237.123,440.3-245.553,441.855-253.978Z"
                                        transform="translate(342.149 333.388)"
                                    />
                                </g>
                                <g id="wa">
                                    <path
                                        class="cls-06"
                                        d="M182.8-165.137c9.086-3.637,18.14-7.354,27.264-10.9,20.6-7.993,41.12-16.24,62.931-20.524a86.987,86.987,0,0,1,20.825-1.607c20.564.948,30.936,14.862,25.989,34.853-2.984,12.058-9.559,22.218-17.064,31.812-22.689,29-48.331,55.273-75.23,80.351-2.291,2.136-5.528,5.905-8.329,2.885-2.458-2.65,1.426-5.749,3.572-7.733a451.088,451.088,0,0,0,46.524-50.582c12.575-15.787,23.912-32.345,29.526-52.095.363-1.274.616-2.579.906-3.873,2.564-11.43-.424-15.247-12.31-15.792-25.3-1.158-49.561,4.207-73.458,11.715-11.234,3.53-22.362,7.4-33.538,11.109C180.417-158.915,181.834-161.97,182.8-165.137Z"
                                        transform="translate(342.149 333.388)"
                                    />
                                    <path
                                        class="cls-02"
                                        d="M182.8-165.137c-.964,3.167-2.381,6.222-2.392,9.624-5.256,18.466-10.571,36.916-15.751,55.4-5.139,18.341-10.111,36.73-15.239,55.074-.66,2.36-.742,5.813-4.83,4.668-4.04-1.131-2.34-4.266-1.86-6.6q10.149-49.428,20.465-98.823a21.333,21.333,0,0,0,.226-2.46,15.221,15.221,0,0,0,1.311-7.874c3.51-10.907,4.977-22.271,7.429-33.413,3.351-15.223,6.333-30.527,9.428-45.806,1.5-7.417,5.122-10.254,11.549-8.9,6.789,1.427,9.714,6.394,7.779,13.439Q191.894-197.962,182.8-165.137Z"
                                        transform="translate(342.149 333.388)"
                                    />
                                    <path
                                        class="cls-03"
                                        d="M132.553-135.468c-4.563,1.279-5.734.277-4.943-4.983,1.7-11.322,3.631-22.609,5.472-33.909q5.165-31.687,10.357-63.368c.494-2.991.273-4.379-3.577-4.073-24.208,1.923-48.441,3.531-72.658,5.332-2.5.186-4.512-.21-4.881-2.889-.377-2.732,1.226-4.258,3.947-4.729,9.007-1.559,18-3.2,27.008-4.756,18.5-3.188,37.013-6.32,55.514-9.513,8.87-1.531,12.268,2.358,10.19,11.281q-11.79,50.638-23.373,101.326a9.633,9.633,0,0,0-.112,1.487Z"
                                        transform="translate(342.149 333.388)"
                                    />
                                    <path
                                        class="cls-06"
                                        d="M132.553-135.468l2.944-8.794c8.043-3.461,16.078-6.94,24.135-10.369,1.628-.693,3.091-2.046,5.1-1.5a15.221,15.221,0,0,1-1.311,7.874c-9.045,3.05-17.468,7.557-26.266,11.186C135.654-136.449,134.087-136,132.553-135.468Z"
                                        transform="translate(342.149 333.388)"
                                    />
                                </g>
                                <g id="ni">
                                    <path
                                        class="cls-03"
                                        d="M-58.7-98.58c1.723-15.919,6.9-31.914,10.526-48.228,2.518-11.324,5.306-22.569,6.793-34.106.781-6.061,5.944-9.4,11.471-8.042a9.138,9.138,0,0,1,6.358,12.512c-9.282,22.08-14.234,45.507-21.482,68.217-.686,2.15-3.315,5.538-1.435,6.453,2.912,1.419,3.87-2.775,5.338-4.662A362.283,362.283,0,0,0-19.231-137.87c2.022-3.26,4.513-5.377,8.066-2.91,3.425,2.378,2.047,5.409-.032,8.217q-16.593,22.4-33.11,44.862c-2.279,3.092-4.4,6.753-9.106,5.216-4.642-1.518-4.977-5.765-5.27-9.8C-58.815-94.1-58.7-95.931-58.7-98.58Z"
                                        transform="translate(342.149 333.388)"
                                    />
                                    <path
                                        class="cls-07"
                                        d="M79.047-188.031c-9,2.253-17.169,4.257-25.316,6.343-13.51,3.459-27,6.987-40.513,10.453-5.965,1.531-9.639-.62-11.2-6.459C.5-183.361,3.6-189.554,8.959-190.618c8.62-1.712,17.321-3.02,25.988-4.5q27.976-4.762,55.954-9.513c1.635-.277,3.292-.436,4.943-.612,2.478-.264,4.8-.036,5.587,2.854.735,2.708.7,5.464-1.956,7.145-6.34,4.015-10.448,10.145-15.287,15.592a23.369,23.369,0,0,1-3.589,3.41,3.405,3.405,0,0,1-4.585-.026,3.578,3.578,0,0,1-.955-4.519C76.107-182.979,77.4-185.061,79.047-188.031Z"
                                        transform="translate(342.149 333.388)"
                                    />
                                    <path
                                        class="cls-03"
                                        d="M-3.668-107.384c-2.273.213-4.733,1-6.254-1.607-1.611-2.763-.095-5.087,4.222-6.093,12.931-3.014,25.868-6.011,38.834-8.872q29.907-6.6,59.859-12.994c5.4-1.162,9.89,1.468,10.756,6.109.969,5.191-1.934,9.352-7.661,10.15C62.861-116.065,29.821-110.037-3.668-107.384Z"
                                        transform="translate(342.149 333.388)"
                                    />
                                </g>
                                <g id="na">
                                    <path
                                        class="cls-03"
                                        d="M-153.33-150.8c-5.18,21.893-12.207,43.289-18.1,65.755,9.341-1.6,18.111-3.113,26.887-4.595q23.346-3.944,46.7-7.864c2.686-.454,5.745-1.179,6.53,2.385.849,3.854-2.024,5.095-5.255,5.774q-30.471,6.4-60.925,12.89c-5.518,1.177-11.813,1.259-16.277,4.129-4.651,2.991-3.831,10.048-5.711,15.221-4.307,11.854-10.217,22.375-22.2,28.151a27.7,27.7,0,0,1-18,2.231c-7.936-1.643-14.486-5.439-16.648-13.851-2.234-8.693-1.021-16.891,5.689-23.485,5.56-5.464,12.556-8.616,19.733-11.339a120.539,120.539,0,0,1,23-6.415c3.558-.592,5.171-2,5.867-5.827,3.677-20.231,7.736-40.393,11.7-60.572,1.371-6.982,2.8-8.3,10-9.645A11.251,11.251,0,0,1-153.33-150.8ZM-185.706-69.95c-10.655,3.367-21.076,5.061-29.226,12.2-4.793,4.2-5.977,12.305-2.752,16.7,3.2,4.363,9.76,5.117,15.76,1.26C-191.285-46.635-187.853-57.459-185.706-69.95Z"
                                        transform="translate(342.149 333.388)"
                                    />
                                    <path
                                        class="cls-03"
                                        d="M-248.038-167.95c-7.383,24.084-14.7,48.191-22.163,72.249Q-294-19.015-317.928,57.632c-.493,1.583-.936,3.183-1.486,4.746-.8,2.289-2.2,3.644-4.885,3.013-2.839-.666-3.227-2.761-2.68-5,1.417-5.791,3.06-11.528,4.618-17.284q28.131-103.9,56.261-207.8c.086-.32.123-.653.182-.979Z"
                                        transform="translate(342.149 333.388)"
                                    />
                                    <path
                                        class="cls-08"
                                        d="M-248.038-167.95l-17.88,2.276c-22.436,2.636-44.868,5.31-67.314,7.866-3.208.366-7.708,2.461-8.754-2.594-1.148-5.545,4.009-5.085,7.314-5.791q36.8-7.864,73.631-15.548,9.379-1.954,18.759-3.9c16.127-3.271,32.248-6.58,48.387-9.795,5.942-1.184,11.117,1.683,12.758,6.828,2.04,6.4-2.2,12.5-9.469,13.413-17.662,2.216-35.334,4.352-53,6.534C-245.09-168.482-246.561-168.191-248.038-167.95Z"
                                        transform="translate(342.149 333.388)"
                                    />
                                    <path
                                        class="cls-02"
                                        d="M-242.282-185.645q-9.379,1.952-18.759,3.9c2.887-14.281,7.348-28.155,11.022-42.233,4.052-15.53,8.379-30.99,12.641-46.465,2.1-7.617,7.026-11.007,13.233-9.262,6.173,1.735,8.613,7.435,6.325,14.847Q-230.043-225.248-242.282-185.645Z"
                                        transform="translate(342.149 333.388)"
                                    />
                                    <path
                                        class="cls-09"
                                        d="M-153.33-150.8a11.251,11.251,0,0,0-7.012-7.057c26.5-5.647,53-11.337,79.517-16.9,5.439-1.142,9.782,1.728,10.541,6.485.851,5.332-2.472,9.26-8.587,9.89Q-116.1-154.551-153.33-150.8Z"
                                        transform="translate(342.149 333.388)"
                                    />
                                </g>
                            </g>
                        </svg>