<svg xmlns="http://www.w3.org/2000/svg" viewBox="0 0 750 246"><defs><style>.cls-1,.cls-5{fill:none;}.cls-2{fill:#ffdccd;}.cls-3{fill:#787878;}.cls-4{fill:#ffbeaf;}.cls-5{stroke:#ffbeaf;stroke-miterlimit:10;stroke-width:2.01px;}</style></defs><g id="レイヤー_2" data-name="レイヤー 2"><g id="bg"><rect class="cls-1" width="750" height="246"/><path class="cls-2" d="M152,140.73a81.65,81.65,0,0,0,5.35,6.4c-9.69-10.49-34.48-14.38-44.89-3.53-6.76,7.05-5.28,17.56,1.46,24,5,4.74,12.4,5.46,19.24,5.94,10.48.73,20.23-.81,30.53-.3,9,.46,17.31.21,25.38,5.19-7.42-21.56-6.88-45-2.73-76,3.45-25.72-6.11-45.79-27.19-44-13.31,1.1-22.3,13.07-24.95,21.07-2.1,6.33-2.47,15-1.66,21.62,1.83,15,10.37,27.57,19.46,39.6"/><polygon class="cls-3" points="510.19 174.38 516.06 187.27 522.18 174.38 527.62 174.38 533.73 187.65 539.89 174.38 549.49 174.38 536.69 198.88 530.91 198.88 524.8 185.46 518.98 198.88 513.1 198.88 500.54 174.38 510.19 174.38"/><path class="cls-3" d="M565.73,188.08q0,5.59,5.25,5.59a4.68,4.68,0,0,0,4.25-2.29h8.36q-2.54,8.4-12.66,8.4a16.63,16.63,0,0,1-5.68-.93,12.66,12.66,0,0,1-4.42-2.65,11.78,11.78,0,0,1-2.84-4.11,13.63,13.63,0,0,1-1-5.34,15.08,15.08,0,0,1,1-5.52,11.52,11.52,0,0,1,2.72-4.18,11.92,11.92,0,0,1,4.27-2.65,16.19,16.19,0,0,1,5.66-.93,15.87,15.87,0,0,1,5.59.93,11.34,11.34,0,0,1,4.2,2.7,11.78,11.78,0,0,1,2.63,4.32,17.24,17.24,0,0,1,.9,5.76v.9Zm10.12-5a5.11,5.11,0,0,0-1.77-2.91,5.47,5.47,0,0,0-6.51,0,4.72,4.72,0,0,0-1.6,3Z"/><path class="cls-3" d="M604.17,161.92v14.89a10.14,10.14,0,0,1,7.64-3.2,11.88,11.88,0,0,1,8.86,3.8,12.93,12.93,0,0,1,2.51,4.11,14.5,14.5,0,0,1,0,10.14,12.69,12.69,0,0,1-2.6,4.16,12.38,12.38,0,0,1-3.94,2.79,11.65,11.65,0,0,1-4.89,1,9.11,9.11,0,0,1-7.55-3.49v2.73h-8.64v-37Zm10.89,24.78a5.73,5.73,0,0,0-.43-2.18,5.63,5.63,0,0,0-1.2-1.79,6.13,6.13,0,0,0-1.76-1.21,5.16,5.16,0,0,0-2.2-.46,5.54,5.54,0,0,0-2.15.43,5.31,5.31,0,0,0-1.74,1.2,6,6,0,0,0-1.2,1.79,5.52,5.52,0,0,0,0,4.32,5.28,5.28,0,0,0,1.19,1.74,6.09,6.09,0,0,0,1.8,1.2,5.3,5.3,0,0,0,2.17.45,5.38,5.38,0,0,0,3.89-1.62,6.19,6.19,0,0,0,1.19-1.77,4.94,4.94,0,0,0,.46-2.1"/><path class="cls-3" d="M193,162.58c-15.74-5.69-26.93-19.12-33.86-33.92a100.81,100.81,0,0,1-7.68-24c-1.69-8.94-2.17-18.36-.31-27.3a43.61,43.61,0,0,1,10.4-20.55c4.48-4.86,11-8.06,17.54-5.39a17.23,17.23,0,0,1,6.13,4.92,34.78,34.78,0,0,1,5.58,10.1c4.46,12,4.6,25.32,3.3,37.88a175.6,175.6,0,0,1-5.53,28.37,76.62,76.62,0,0,1-11.16,24.35,82.88,82.88,0,0,1-18.52,18.77A81.12,81.12,0,0,1,147.52,183c-4.35,2.21-9.44,4.27-14.39,4.26-2.9,0-6.6-1.73-7.38-4.81-.56-2.22.57-4.51,1.74-6.33,3-4.73,7.7-8.5,12.17-11.8,9.84-7.29,21.12-12.62,32.3-17.48a279,279,0,0,1,52.46-17.19c4.45-.95,8.93-1.76,13.44-2.39,1.59-.22.91-2.64-.67-2.42-19.49,2.72-38.53,8.56-56.79,15.8-7.94,3.14-15.77,6.58-23.41,10.43a130.06,130.06,0,0,0-15.79,9.07,74,74,0,0,0-12.74,10.68c-3.29,3.61-7.38,9.35-4.27,14.28,5.15,8.14,16.91,3.82,23.67.54a84.93,84.93,0,0,0,22.52-16.29,79.14,79.14,0,0,0,15.86-22.38c4.3-9.23,6.61-19.47,8.48-29.43,2.79-14.9,4-30.77.37-45.64-1.93-7.81-5.5-16.39-12.31-21.19a15.76,15.76,0,0,0-14-1.79c-6.92,2.42-11.66,8.79-15.17,14.92-9.25,16.13-6.81,37-1.37,54,5.21,16.26,14.5,32.14,29,41.71A52.87,52.87,0,0,0,192.35,165c1.52.55,2.18-1.88.67-2.43"/><path class="cls-3" d="M238.12,125.11A24.82,24.82,0,0,0,224,144.89c-.35,3.91,1.61,7.49,5.82,7.7,3.89.2,7.42-2.12,10-4.83a27.2,27.2,0,0,0,6.5-11.64c.76-2.85,1.19-7.66-2.2-9.11s-5.69,2.42-4.73,5.32c1.38,4.18,7.24,4.14,10.71,3.64,5.09-.73,9.84-3.08,14.35-5.44a112.82,112.82,0,0,0,12.82-7.86,117.9,117.9,0,0,0,21.74-20c5.82-6.85,10.85-14.48,11.7-23.65.29-3.11-1-8-5.15-7-2.1.51-3.74,2.48-5.14,4A48.89,48.89,0,0,0,296,81.67c-5.29,7.82-8.24,17-12.27,25.46-4.72,9.94-9.06,20.07-12.87,30.39q-1.44,3.85-2.77,7.76a1.27,1.27,0,0,0,2.1,1.22,109.37,109.37,0,0,1,10.15-9q2.67-2.07,5.48-4c1.56-1.06,4.63-3.34,6.48-1.67,1.5,1.35,1,4,.56,5.71-.58,2.27-1.62,4.4-2.26,6.65a11,11,0,0,0,.35,8c2.32,4.57,8.18,5.32,12.69,4.35a24.4,24.4,0,0,0,7.88-3.69,92,92,0,0,0,9.12-6.57c6.43-5.22,12.58-11.55,15.6-19.4l-2.43-.67a44.08,44.08,0,0,1-5.52,14.84,1.26,1.26,0,0,0,2,1.52c5.66-6,11.49-12.63,19.06-16.27a15.58,15.58,0,0,1,5.68-1.71c1,0,2.18.19,2.51,1.26a4.75,4.75,0,0,1-.49,2.61c-.7,2.12-1.53,4.19-2.25,6.29-1.28,3.74-3.45,9.18-1.67,13.07,2.54,5.53,11,.54,14.3-1.1A105.13,105.13,0,0,0,394,128l-2.1-1.22q-3,7.67-6.1,15.34c-.6,1.51,1.82,2.14,2.43.66a27,27,0,0,1,6.14-8.46,43.75,43.75,0,0,1,9.87-7.51c3-1.63,6.56-3.17,10-2.9.54,0,1.4.15,1.59.78.11.33-.18,1-.29,1.31-.19.59-.42,1.17-.65,1.75-.61,1.52-1.27,3-1.9,4.52-1.94,4.69-6.23,14.61.25,17.82,3.23,1.6,7.49.39,10.73-.64a60.52,60.52,0,0,0,10.83-4.8c7.54-4.19,15.52-9.78,20.1-17.26l-2.17-1.27a117.46,117.46,0,0,0-7.43,13.57,47.62,47.62,0,0,0-2.52,7.17c-.46,1.78-1.57,4.71-.34,6.39,1.1,1.49,3.1,1.07,4.48.24a47.43,47.43,0,0,0,5.74-4.58c4-3.38,7.92-6.87,12-10.12,2.15-1.7,4.35-3.33,6.64-4.83a32.35,32.35,0,0,1,6.67-3.72c.87-.31,1.68-.35,2.15.55a3.9,3.9,0,0,1,.16,1.77,29.89,29.89,0,0,1-.42,4.72,49.85,49.85,0,0,1-2.2,8.33c-1.88,5.4-4.28,10.64-6.55,15.89S466.58,172,464,177.07c-4.1,8.14-8.16,17.16-15,23.43-1.54,1.42-6.25,5.55-7.81,2-1-2.22.29-5.43,1.06-7.52a48.46,48.46,0,0,1,9.61-15.35,133.59,133.59,0,0,1,23-20.61c8.6-6.1,18.15-10.47,27.43-15.41a159.37,159.37,0,0,0,13.94-8.19c4.09-2.74,8.74-5.75,11.74-9.72a8.82,8.82,0,0,0,2-6.18,1.27,1.27,0,0,0-1.58-1.21c-6.15.93-5.19,7.27-3.78,11.7.84,2.65,2,5.21,2.68,7.89.84,3.09-.21,5.67-2.54,7.88a18.5,18.5,0,0,1-5.17,3.32c-2.1.95-5.86,2.61-7.71.41-3-3.51,7-6.66,9.19-7.14a123.84,123.84,0,0,1,12.74-1.6c4-.47,8.1-.86,12.14-1.39,9-1.2,18.68-2.9,26.13-8.43,1.28-1,0-3.14-1.27-2.17-7.38,5.47-17,7.08-25.91,8.22-4.44.57-8.89,1-13.33,1.51s-9.08.7-13.42,2a20,20,0,0,0-6,2.9c-1.47,1.09-3.19,2.52-3.31,4.49a4.91,4.91,0,0,0,2.85,4.52c2.13,1.06,4.61.56,6.75-.2,3.91-1.38,7.85-3.6,10.16-7.15a9.29,9.29,0,0,0,1-8.31c-1-3.3-2.42-6.45-3.21-9.8-.69-2.87-.79-5.73,2.68-6.26l-1.59-1.21c.26,2.91-1.63,5.14-3.66,7a68.64,68.64,0,0,1-6.59,5.19,143.09,143.09,0,0,1-14.31,8.73c-9.6,5.21-19.62,9.64-28.6,15.92a136.1,136.1,0,0,0-23.68,20.9,54,54,0,0,0-10.35,15.93c-1.6,4-4,12.1,2.38,13.09,4,.63,8-3.6,10.41-6.34A63.25,63.25,0,0,0,461,188.31a328,328,0,0,0,14.17-29.61c2.26-5.27,4.66-10.52,6.2-16a41.92,41.92,0,0,0,1.5-8.46c.13-2,.33-4.78-1.59-6.09s-4.12-.23-5.88.68a60.27,60.27,0,0,0-6.93,4.2,158,158,0,0,0-12.54,10c-2.09,1.79-4.16,3.59-6.28,5.34-1,.8-1.93,1.6-2.92,2.36-.3.24-1.28,1.16-1.71,1.07-.82-.16-.28-1.61-.18-2.11a52.57,52.57,0,0,1,6-15.06c1.34-2.41,2.77-4.76,4.19-7.12a1.26,1.26,0,0,0-2.17-1.27c-4.15,6.78-11.34,11.83-18.1,15.73a58.53,58.53,0,0,1-11.33,5.18c-2.87.91-8.85,2.89-10.49-.82-1.27-2.87.17-6.73,1.13-9.48,1.12-3.16,2.61-6.17,3.76-9.31.54-1.47,1.07-3.24,0-4.61s-3-1.48-4.54-1.42a23.13,23.13,0,0,0-9.83,3c-7.11,3.79-14.45,10.1-17.58,17.7l2.43.66,6.1-15.33c.49-1.23-1.27-2-2.1-1.22a103.43,103.43,0,0,1-24,17.22q-3.19,1.66-6.5,3.09a12.81,12.81,0,0,1-4.23,1.24c-1.81.09-2.43-1-2.49-2.71-.18-4.57,2-9.32,3.51-13.53.86-2.34,2.44-5.43.7-7.69-2.27-3-6.7-1.62-9.57-.46-8.54,3.45-15.05,10.83-21.22,17.39l2,1.52a46.45,46.45,0,0,0,5.77-15.44,1.26,1.26,0,0,0-2.43-.67c-2.72,7.08-8.38,12.83-14.11,17.61a90,90,0,0,1-9,6.6c-2.54,1.63-5.06,3.21-8.06,3.77-4.85.92-10.43-1-10.06-6.76.26-4,2.78-7.55,3.17-11.59.32-3.19-1.07-6.93-4.78-7a10.36,10.36,0,0,0-5.63,2c-2.06,1.34-4.05,2.8-6,4.3a110.79,110.79,0,0,0-10.88,9.55l2.1,1.22q4.41-12.87,9.83-25.35c3.33-7.69,7-15.21,10.3-22.92,3-7,6.2-13.94,11.35-19.63,1-1.09,3.31-4.29,5-3.49,1.51.69,1.25,3.45,1.12,4.75A30.41,30.41,0,0,1,304.85,90c-3.45,6.72-8.77,12.61-14.06,18a111.63,111.63,0,0,1-19,15.38,112.75,112.75,0,0,1-10.24,5.86c-4,2-8.35,4.06-12.92,4.45-1.83.16-4,.24-5.67-.74a2.39,2.39,0,0,1-1.36-2c0-.67.32-1.62,1.14-1.59,1.37,0,1.61,2.5,1.59,3.47a16.47,16.47,0,0,1-1.43,5.59c-1.52,3.8-4.17,7.82-7.65,10.08-2.85,1.86-8.42,3.12-8.82-1.81-.31-3.88,1.52-8.16,3.61-11.33a22.52,22.52,0,0,1,9.31-8c1.47-.69.19-2.85-1.27-2.17"/><path class="cls-3" d="M507.13,97.52a1.78,1.78,0,0,1-.06.38c-.16-.35.27.11.22.06.36.35.2,1.33.16,1.75a19.06,19.06,0,0,1-1.1,4.54,20.35,20.35,0,0,1-5.18,7.78c-1.18,1.11.6,2.88,1.78,1.78a22.78,22.78,0,0,0,6.67-11.87c.4-1.93.95-4.76-1-6.11-1.74-1.22-4.4.16-4,2.35.32,1.59,2.74.92,2.42-.66"/><path class="cls-4" d="M284.23,168.46h2.45v16.92a9.5,9.5,0,0,1-.48,3.5,3.91,3.91,0,0,1-1.57,1.82,4.79,4.79,0,0,1-2.6.68,6.6,6.6,0,0,1-.79-.07l-.46-2.28h.63a4,4,0,0,0,1.61-.26,1.86,1.86,0,0,0,.88-.91,7.26,7.26,0,0,0,.33-2.76Z"/><path class="cls-4" d="M295.58,174.29a5.86,5.86,0,0,1,4.28,1.66,5.59,5.59,0,0,1,1.71,4.18,5.3,5.3,0,0,1-1.73,4.05,6.13,6.13,0,0,1-4.36,1.62,5.88,5.88,0,0,1-4.24-1.64,5.43,5.43,0,0,1-1.71-4.09,5.5,5.5,0,0,1,1.72-4.13,6,6,0,0,1,4.33-1.65m-.12,2a3.52,3.52,0,0,0-2.64,1.06,3.65,3.65,0,0,0-1,2.68,3.56,3.56,0,0,0,1,2.65,3.76,3.76,0,0,0,2.72,1,3.67,3.67,0,0,0,2.69-1A3.59,3.59,0,0,0,299.3,180a3.53,3.53,0,0,0-1.09-2.66,3.79,3.79,0,0,0-2.75-1.06"/><path class="cls-4" d="M304,168.46h2.23v7.34a4.33,4.33,0,0,1,3.48-1.71,3.77,3.77,0,0,1,2,.56,3.43,3.43,0,0,1,1.33,1.56,7.74,7.74,0,0,1,.44,3v6.43h-2.23v-7a3.14,3.14,0,0,0-.61-2,2,2,0,0,0-1.6-.75,2.74,2.74,0,0,0-1.39.38,6.63,6.63,0,0,0-1.44,1.26v8.09H304Z"/><path class="cls-4" d="M318.85,174.31v1.44a4.48,4.48,0,0,1,3.4-1.66,3.68,3.68,0,0,1,2,.55,3.48,3.48,0,0,1,1.38,1.49,7.1,7.1,0,0,1,.48,3v6.45h-2.24v-6.43a4.4,4.4,0,0,0-.52-2.47,2,2,0,0,0-1.77-.74,3.21,3.21,0,0,0-2.69,1.58v8.06h-2.28V174.31Z"/><path class="cls-4" d="M331.42,174.31v1.44a4.48,4.48,0,0,1,3.4-1.66,3.7,3.7,0,0,1,2,.55,3.54,3.54,0,0,1,1.38,1.49,7.12,7.12,0,0,1,.47,3v6.45H336.4v-6.43a4.39,4.39,0,0,0-.53-2.47,2,2,0,0,0-1.77-.74,3.19,3.19,0,0,0-2.68,1.58v8.06h-2.29V174.31Z"/><polygon class="cls-4" points="348.68 174.31 351.19 174.31 343.19 191.36 340.69 191.36 344.53 183.18 340.17 174.31 342.71 174.31 345.76 180.69 348.68 174.31"/><path class="cls-4" d="M352.4,174.47V174a3.3,3.3,0,0,0,.78-1.07,4.34,4.34,0,0,0,.25-1.44,1.67,1.67,0,0,1-.85-2.77,1.43,1.43,0,0,1,1.06-.47,1.46,1.46,0,0,1,1.23.66,2.82,2.82,0,0,1,.48,1.69,3.88,3.88,0,0,1-.79,2.42,4.18,4.18,0,0,1-2.16,1.46"/><path class="cls-4" d="M357,184.79v-2.4a10,10,0,0,0,1.94,1.07,4.53,4.53,0,0,0,1.66.41,2,2,0,0,0,1.2-.34,1,1,0,0,0,.5-.82,1.1,1.1,0,0,0-.32-.82,7.62,7.62,0,0,0-1.41-.94,9.94,9.94,0,0,1-2.82-2A2.93,2.93,0,0,1,357,177a2.61,2.61,0,0,1,1-2.13,4,4,0,0,1,2.61-.82,7.21,7.21,0,0,1,3.4.93v2.21a6.82,6.82,0,0,0-3.26-1.2,1.78,1.78,0,0,0-1.05.28.84.84,0,0,0-.39.73,1.06,1.06,0,0,0,.36.75,6.54,6.54,0,0,0,1.27.86l.8.45q2.82,1.59,2.82,3.53a2.79,2.79,0,0,1-1.09,2.28,4.26,4.26,0,0,1-2.79.89,6.5,6.5,0,0,1-1.79-.22,11.64,11.64,0,0,1-2-.79"/><polygon class="cls-4" points="388.28 174.31 390.68 174.31 385.69 185.8 384.97 185.8 381.64 177.93 378.34 185.8 377.61 185.8 372.58 174.31 374.98 174.31 377.94 181.16 380.82 174.31 382.48 174.31 385.33 181.16 388.28 174.31"/><path class="cls-4" d="M401.87,180.15h-7.94a3.69,3.69,0,0,0,1.08,2.58,3.59,3.59,0,0,0,2.59,1,6.69,6.69,0,0,0,4.07-1.38v2.19a7.59,7.59,0,0,1-2,1,8.47,8.47,0,0,1-2.38.29,5.31,5.31,0,0,1-3-.77,5.55,5.55,0,0,1-1.84-2.08,6.28,6.28,0,0,1-.7-3,6,6,0,0,1,1.46-4.19,4.91,4.91,0,0,1,3.8-1.61,4.46,4.46,0,0,1,3.58,1.57,6.29,6.29,0,0,1,1.34,4.21ZM394,178.82h5.68a3.18,3.18,0,0,0-.8-2.07A2.56,2.56,0,0,0,397,176a2.75,2.75,0,0,0-2,.72,3.52,3.52,0,0,0-1,2.07"/><path class="cls-4" d="M404.19,168.46h2.23v6.66a5.17,5.17,0,0,1,3.09-1.05,4.38,4.38,0,0,1,3.51,1.62,6.22,6.22,0,0,1,1.36,4.16,5.83,5.83,0,0,1-1.62,4.33,5.91,5.91,0,0,1-4.35,1.62,11.76,11.76,0,0,1-2.3-.24,7.6,7.6,0,0,1-1.92-.58Zm2.23,8.8v6.11a8,8,0,0,0,2.34.34,3.12,3.12,0,0,0,2.43-1.05,4,4,0,0,0,.94-2.72,4.14,4.14,0,0,0-.88-2.73,2.83,2.83,0,0,0-2.29-1.06,3.92,3.92,0,0,0-2.54,1.11"/><line class="cls-5" x1="274" y1="179.23" x2="261.94" y2="179.23"/><line class="cls-5" x1="433.08" y1="179.23" x2="421.01" y2="179.23"/></g></g></svg>