<svg xmlns="http://www.w3.org/2000/svg" viewBox="0 0 130 130"><defs><style>.cls-1{fill:#fff;}.cls-2{fill:#616777;}.cls-3{fill:none;stroke:#616777;stroke-miterlimit:10;stroke-width:3px;}</style></defs><g id="レイヤー_2" data-name="レイヤー 2"><g id="design"><rect class="cls-1" width="130" height="130" rx="65"/><path class="cls-2" d="M30.65,71.65V51.85h5.61a7.92,7.92,0,0,1,3.39.67,5.18,5.18,0,0,1,2.24,1.94,5.74,5.74,0,0,1,.79,3.1,6,6,0,0,1-.79,3.14,5.47,5.47,0,0,1-2.24,2.07,7.37,7.37,0,0,1-3.39.73H33.08v8.15Zm2.43-10.16H35.6A5.83,5.83,0,0,0,38,61a3.52,3.52,0,0,0,2.19-3.42,3.63,3.63,0,0,0-.58-2.1A3.53,3.53,0,0,0,38,54.25a6,6,0,0,0-2.37-.44H33.08Z"/><path class="cls-2" d="M44.3,71.65l7.83-19.8H54.4l7.84,19.8H59.61l-2.2-5.78H49.12l-2.21,5.78ZM50,63.73h6.63L53.26,55.1Z"/><path class="cls-2" d="M75.12,72a9.23,9.23,0,0,1-3.82-.79,9.48,9.48,0,0,1-3.09-2.18,10,10,0,0,1-2.07-3.28,10.65,10.65,0,0,1-.75-4,11.35,11.35,0,0,1,.67-3.86,10.13,10.13,0,0,1,2-3.29,9.34,9.34,0,0,1,3.13-2.28,9.92,9.92,0,0,1,4.17-.84,10.87,10.87,0,0,1,5.32,1.35,9.45,9.45,0,0,1,2.07,1.54L81.5,56.25a8,8,0,0,0-2.75-1.89,8.56,8.56,0,0,0-3.43-.7,7.13,7.13,0,0,0-3.1.64,6.49,6.49,0,0,0-2.29,1.75,7.58,7.58,0,0,0-1.42,2.55A9.35,9.35,0,0,0,68,61.66a9.18,9.18,0,0,0,.55,3.24,7.75,7.75,0,0,0,1.53,2.58,6.81,6.81,0,0,0,2.29,1.71,6.53,6.53,0,0,0,2.82.61,7.28,7.28,0,0,0,2.39-.41,6.82,6.82,0,0,0,2.09-1.17,5.79,5.79,0,0,0,1.48-1.82,5.08,5.08,0,0,0,.54-2.35v-.57H75V61.54h9.17v2.14a7.88,7.88,0,0,1-.78,3.57,7.77,7.77,0,0,1-2.1,2.61,9.5,9.5,0,0,1-2.92,1.62A10.05,10.05,0,0,1,75.12,72Z"/><path class="cls-2" d="M90.05,71.65V51.85h10.29V54H92.49v6.66h7.56v2.14H92.49V69.5h7.85v2.15Z"/><path class="cls-2" d="M43.79,103.65V86H38.06V83.85H52V86H46.23v17.62Z"/><path class="cls-2" d="M63.4,104a9.56,9.56,0,0,1-3.89-.79,9.91,9.91,0,0,1-3.18-2.2,10.49,10.49,0,0,1,0-14.56,9.91,9.91,0,0,1,3.18-2.2,9.95,9.95,0,0,1,7.77,0,9.91,9.91,0,0,1,3.18,2.2,10.32,10.32,0,0,1,2.15,3.27,10.8,10.8,0,0,1,0,8A10.26,10.26,0,0,1,70.46,101a9.91,9.91,0,0,1-3.18,2.2A9.51,9.51,0,0,1,63.4,104Zm0-2.35a7,7,0,0,0,5.23-2.28,7.6,7.6,0,0,0,1.56-2.51,9,9,0,0,0,0-6.26,7.75,7.75,0,0,0-1.56-2.52,7.11,7.11,0,0,0-2.34-1.67,7.28,7.28,0,0,0-5.79,0,7.32,7.32,0,0,0-2.34,1.67,7.75,7.75,0,0,0-1.56,2.52,9,9,0,0,0,0,6.26,7.6,7.6,0,0,0,1.56,2.51,7.2,7.2,0,0,0,2.34,1.68A7,7,0,0,0,63.4,101.68Z"/><path class="cls-2" d="M79.5,103.65V83.85h5.61a7.92,7.92,0,0,1,3.39.67,5.18,5.18,0,0,1,2.24,1.94,5.74,5.74,0,0,1,.79,3.1,6,6,0,0,1-.79,3.14,5.47,5.47,0,0,1-2.24,2.07,7.37,7.37,0,0,1-3.39.73H81.93v8.15Zm2.43-10.16h2.52A5.83,5.83,0,0,0,86.82,93,3.52,3.52,0,0,0,89,89.62a3.63,3.63,0,0,0-.58-2.1,3.53,3.53,0,0,0-1.61-1.27,6,6,0,0,0-2.37-.44H81.93Z"/><polyline class="cls-3" points="75 36.35 65 26.82 55 36.35"/></g></g></svg>