<svg xmlns="http://www.w3.org/2000/svg" viewBox="0 0 161.92 50"><defs><style>.cls-1{fill:#fff;}.cls-2{fill:#b0bec5;}.cls-3{fill:none;stroke:#b0bec5;stroke-miterlimit:10;stroke-width:2.4px;}</style></defs><g id="レイヤー_2" data-name="レイヤー 2"><g id="design"><path class="cls-1" d="M25,49A24,24,0,0,1,25,1H136.92a24,24,0,0,1,0,48Z"/><path class="cls-2" d="M136.92,2a23,23,0,0,1,0,46H25A23,23,0,0,1,25,2H136.92m0-2H25a25,25,0,0,0,0,50H136.92a25,25,0,0,0,0-50Z"/><path class="cls-2" d="M66.58,34.81c-1.79,0-2.8-.89-2.8-2.7V15.94a1.34,1.34,0,0,1,2.66,0V31.38c0,.61.31.9.84.9h9.93a1.27,1.27,0,1,1,0,2.53Z"/><path class="cls-2" d="M81,15.9a1.23,1.23,0,0,1,1.38-1.14c.7,0,1.38.36,1.38,1.14v18c0,.75-.68,1.11-1.38,1.11S81,34.62,81,33.87Z"/><path class="cls-2" d="M91.18,25.9a2.06,2.06,0,0,1-.63-.85v8.87a1.33,1.33,0,0,1-2.63,0v-18a1.33,1.33,0,0,1,2.63,0v7.46a1.81,1.81,0,0,1,.61-.8l9.76-7.51a1.32,1.32,0,0,1,.8-.26,1.44,1.44,0,0,1,1.4,1.35,1.12,1.12,0,0,1-.51.92l-9.18,6.81a.49.49,0,0,0-.24.39.47.47,0,0,0,.19.36l10.32,8a1.09,1.09,0,0,1,.45.89A1.51,1.51,0,0,1,102.71,35a1.18,1.18,0,0,1-.8-.29Z"/><path class="cls-2" d="M109.27,34.81a2.44,2.44,0,0,1-2.78-2.7V17.68c0-1.78,1-2.68,2.78-2.68h10.58a1.25,1.25,0,1,1,0,2.49H110c-.53,0-.85.24-.85.77v4.93H119a1.21,1.21,0,0,1,1.28,1.26A1.2,1.2,0,0,1,119,25.68h-9.86v5.78c0,.65.27.86.9.86H120a1.25,1.25,0,1,1,0,2.49Z"/><path class="cls-2" d="M126.89,35.1a1.72,1.72,0,1,1,1.71-1.71A1.72,1.72,0,0,1,126.89,35.1Zm-1.48-18.72a1.49,1.49,0,0,1,1.53-1.62,1.46,1.46,0,0,1,1.49,1.55v.09L128,28.75a1.09,1.09,0,1,1-2.17,0Z"/><path class="cls-3" d="M45.78,13.16c3.51,0,6.43,3.23,6.43,7.42,0,4.55-3.66,7.81-6,10a52.33,52.33,0,0,0-6.93,8.18c0,.07-.09.07-.12,0a52.17,52.17,0,0,0-6.92-8.18c-2.31-2.22-6-5.51-6-10,0-4.19,2.92-7.42,6.43-7.42a6.26,6.26,0,0,1,6.37,4.92c0,.1.06.22.15.22s.13-.12.16-.22A6.23,6.23,0,0,1,45.78,13.16Z"/></g></g></svg>