<svg xmlns="http://www.w3.org/2000/svg" viewBox="0 0 60 60"><defs><style>.cls-1{fill:#fff;}</style></defs><g id="レイヤー_2" data-name="レイヤー 2"><g id="レイヤー_1-2" data-name="レイヤー 1"><path class="cls-1" d="M49.94,3A7.07,7.07,0,0,1,57,10.06V49.94A7.07,7.07,0,0,1,49.94,57H10.06A7.07,7.07,0,0,1,3,49.94V10.06A7.07,7.07,0,0,1,10.06,3H49.94m0-3H10.06A10.06,10.06,0,0,0,0,10.06V49.94A10.06,10.06,0,0,0,10.06,60H49.94A10.06,10.06,0,0,0,60,49.94V10.06A10.06,10.06,0,0,0,49.94,0Z"/><path class="cls-1" d="M26,48.5V32.4H20.14V25.74H26V20.67c0-5.76,3.44-9,8.71-9a35.1,35.1,0,0,1,5.15.45v5.68h-2.9c-2.86,0-3.76,1.76-3.76,3.59v4.34h6.37l-1,6.66H33.18V48.5Z"/></g></g></svg>