<svg xmlns="http://www.w3.org/2000/svg" viewBox="0 0 60 60"><defs><style>.cls-1{fill:#fff;}</style></defs><g id="レイヤー_2" data-name="レイヤー 2"><g id="レイヤー_1-2" data-name="レイヤー 1"><path class="cls-1" d="M49.94,3A7.07,7.07,0,0,1,57,10.06V49.94A7.07,7.07,0,0,1,49.94,57H10.06A7.07,7.07,0,0,1,3,49.94V10.06A7.07,7.07,0,0,1,10.06,3H49.94m0-3H10.06A10.06,10.06,0,0,0,0,10.06V49.94A10.06,10.06,0,0,0,10.06,60H49.94A10.06,10.06,0,0,0,60,49.94V10.06A10.06,10.06,0,0,0,49.94,0Z"/><path class="cls-1" d="M24.69,44.93c13.2,0,20.43-11,20.43-20.43,0-.31,0-.62,0-.93a14.4,14.4,0,0,0,3.58-3.72A14.59,14.59,0,0,1,44.56,21a7.25,7.25,0,0,0,3.17-4,14.42,14.42,0,0,1-4.57,1.73,7.18,7.18,0,0,0-12.42,4.92,8.16,8.16,0,0,0,.18,1.64,20.44,20.44,0,0,1-14.81-7.51,7.22,7.22,0,0,0,2.23,9.59,7.3,7.3,0,0,1-3.25-.89v.1a7.2,7.2,0,0,0,5.76,7,6.9,6.9,0,0,1-1.89.25,7.53,7.53,0,0,1-1.35-.12,7.18,7.18,0,0,0,6.71,5,14.41,14.41,0,0,1-8.92,3.08,13.89,13.89,0,0,1-1.71-.09,20.51,20.51,0,0,0,11,3.2"/></g></g></svg>