<svg xmlns="http://www.w3.org/2000/svg" viewBox="0 0 60 60"><defs><style>.cls-1{fill:#fff;}</style></defs><g id="レイヤー_2" data-name="レイヤー 2"><g id="レイヤー_1-2" data-name="レイヤー 1"><path class="cls-1" d="M49.94,3A7.07,7.07,0,0,1,57,10.06V49.94A7.07,7.07,0,0,1,49.94,57H10.06A7.07,7.07,0,0,1,3,49.94V10.06A7.07,7.07,0,0,1,10.06,3H49.94m0-3H10.06A10.06,10.06,0,0,0,0,10.06V49.94A10.06,10.06,0,0,0,10.06,60H49.94A10.06,10.06,0,0,0,60,49.94V10.06A10.06,10.06,0,0,0,49.94,0Z"/><path class="cls-1" d="M47.44,28.45a12.63,12.63,0,0,1-3.72,8.72C40,41.39,31.86,46.51,30,47.28s-1.59-.5-1.51-.93l.23-1.51a3.58,3.58,0,0,0,0-1.59c-.19-.5-1-.73-1.55-.85-8.37-1.09-14.57-6.94-14.57-13.95,0-7.8,7.83-14.15,17.44-14.15s17.44,6.35,17.44,14.15m-21-3.77H25.23a.35.35,0,0,0-.35.35v7.6a.35.35,0,0,0,.35.35h1.24a.34.34,0,0,0,.35-.35V25a.41.41,0,0,0-.35-.35m8.41,0H33.64a.35.35,0,0,0-.35.35v4.5l-3.48-4.69a0,0,0,0,0,0,0l0,0H28.37a.35.35,0,0,0-.35.35v7.6a.35.35,0,0,0,.35.35h1.24a.35.35,0,0,0,.35-.35V28.1l3.49,4.73s0,.07.08.07h1.39a.34.34,0,0,0,.35-.35V25a.42.42,0,0,0-.39-.35m-11.39,6.4H20.15V25a.35.35,0,0,0-.35-.35H18.56a.35.35,0,0,0-.34.35v7.6a.48.48,0,0,0,.07.23.29.29,0,0,0,.24.08h4.88a.35.35,0,0,0,.35-.35V31.35c.08-.11-.08-.27-.27-.27m18.14-4.5a.35.35,0,0,0,.35-.34V25a.35.35,0,0,0-.35-.35H36.75a.55.55,0,0,0-.24.07.57.57,0,0,0-.08.24v7.59a.57.57,0,0,0,.08.24.32.32,0,0,0,.24.07h4.88a.35.35,0,0,0,.35-.34V31.27a.35.35,0,0,0-.35-.34H38.3V29.76h3.33a.35.35,0,0,0,.35-.35v-1.2a.35.35,0,0,0-.35-.35H38.3V26.58Z"/></g></g></svg>